<svg width="24" height="24" viewBox="0 0 24 24" fill="none" xmlns="http://www.w3.org/2000/svg">
<path d="M12.5601 6.59953C13.2478 5.50066 13.7354 4.28858 14.0001 3.01953C14.5001 5.51953 16.0001 7.91953 18.0001 9.51953C20.0001 11.1195 21.0001 13.0195 21.0001 15.0195C21.0058 16.4018 20.601 17.7547 19.8369 18.9066C19.0728 20.0586 17.9839 20.9577 16.7082 21.49C15.4325 22.0224 14.0275 22.1639 12.6713 21.8968C11.315 21.6297 10.0686 20.9659 9.09009 19.9895M7 16.2996C9.2 16.2996 11 14.4696 11 12.2496C11 11.0896 10.43 9.98956 9.29 9.05956C8.15 8.12956 7.29 6.74956 7 5.29956C6.71 6.74956 5.86 8.13956 4.71 9.05956C3.56 9.97956 3 11.0996 3 12.2496C3 14.4696 4.8 16.2996 7 16.2996Z" stroke="white" stroke-width="2" stroke-linecap="round" stroke-linejoin="round"/>
</svg>
